<?xml version="1.0" encoding="UTF-8" standalone="no"?>
<svg
   xmlns:dc="http://purl.org/dc/elements/1.1/"
   xmlns:cc="http://creativecommons.org/ns#"
   xmlns:rdf="http://www.w3.org/1999/02/22-rdf-syntax-ns#"
   xmlns:svg="http://www.w3.org/2000/svg"
   xmlns="http://www.w3.org/2000/svg"
   xmlns:sodipodi="http://sodipodi.sourceforge.net/DTD/sodipodi-0.dtd"
   xmlns:inkscape="http://www.inkscape.org/namespaces/inkscape"
   id="svg"
   version="1.1"
   width="400"
   height="341.1513859275053"
   viewBox="0 0 400 341.1513859275053"
   inkscape:version="0.48.4 r9939"
   sodipodi:docname="image2vector.svg">
  <metadata
     id="metadata13">
    <rdf:RDF>
      <cc:Work
         rdf:about="">
        <dc:format>image/svg+xml</dc:format>
        <dc:type
           rdf:resource="http://purl.org/dc/dcmitype/StillImage" />
      </cc:Work>
    </rdf:RDF>
  </metadata>
  <defs
     id="defs11" />
  <sodipodi:namedview
     pagecolor="#ffffff"
     bordercolor="#666666"
     borderopacity="1"
     objecttolerance="10"
     gridtolerance="10"
     guidetolerance="10"
     inkscape:pageopacity="0"
     inkscape:pageshadow="2"
     inkscape:window-width="1920"
     inkscape:window-height="1017"
     id="namedview9"
     showgrid="false"
     inkscape:zoom="2.7670999"
     inkscape:cx="214.38317"
     inkscape:cy="279.47558"
     inkscape:window-x="-8"
     inkscape:window-y="-8"
     inkscape:window-maximized="1"
     inkscape:current-layer="svg" />
  <g
     id="svgg">
    <path
       id="path0"
       d="m 294.539,0.88327565 c -0.226,0 -0.341,29.32172435 -0.341,82.22272435 l 0,79.693 -83.449,0 -83.449,0 0.087,26.706 0.087,26.707 83.361,0.086 83.361,0.086 0.086,62.03 0.087,62.66885 27.17523,0.21477 27.304,0.087 0.0418,-142.23562 -0.086,-141.47 25.342,-0.054 c 13.938,-0.03 24.51058,0.292004 23.95596,-0.102653 l -1.856,-1.320694 C 395.63079,55.763911 363.856,38.959 363.34,38.396 362.824,37.833 294.727,0.88327565 294.539,0.88327565 z"
       inkscape:connector-curvature="0"
       style="fill:#9c9c9c;fill-rule:evenodd;stroke:none"
       sodipodi:nodetypes="ssccccccccccccccssss" />
    <path
       id="path1"
       d="m 130.546,56.49 c -0.188,0.221 -2.933,1.529 -3.181,1.772 -0.998,0.976 -1.085,0.257 -1.085,-8.945 l 0,-9.385 -26.963,0 -26.962,0 0,23.899 0,23.899 -0.853,0.325 c -0.47,0.178 -0.854,0.451 -0.854,0.606 0,0.156 -63.141,34.052 -63.143,34.167 -0.001,0.115 -3.798,2.269 -4.689,2.606 -1.529,0.578 -2.116,1.023 -2.128,1.614 -0.003,0.141 16.274,0.256 36.172,0.256 l 36.178,0 0,106.996 0,106.997 82.764,0 82.765,0 0,-27.686 0,-27.686 -55.461,0.255 -55.461,0.255 0,-35.026 c 0,-23.124 -0.116,-35.027 -0.341,-35.027 -0.292,0 -0.547,-53.725 -0.256,-54.008 0.047,-0.045 37.713,-0.161 83.703,-0.257 l 83.618,-0.175 -83.192,-0.084 -83.191,-0.083 0,-20.99 c 0,-18.43 0.063,-20.99 0.512,-20.99 0.282,0 52.389,-27.498 52.389,-27.623 0,-0.212 1.992,-1.046 2.499,-1.046 0.127,0 0.232,10.137 0.232,22.526 l 0,22.525 27.304,0 27.303,0 0,-68.088 0,-68.089 c 0,0 -107.491,56.269 -107.679,56.49 z"
       inkscape:connector-curvature="0"
       style="fill:#04549c;fill-rule:evenodd;stroke:none"
       sodipodi:nodetypes="scsccccccscccscccccccccsscscccssscscscscs" />
    <path
       id="path2"
       d="m 348.974,198.976 c 0,77.807 0.04,109.637 0.087,70.734 0.048,-38.904 0.048,-102.564 0,-141.468 -0.047,-38.903 -0.087,-7.073 -0.087,70.734 M 127.645,162.457 c -0.331,0.214 28.965,0.333 83.021,0.336 55.464,0.004 83.532,-0.109 83.532,-0.336 0,-0.463 -165.836,-0.463 -166.553,0"
       inkscape:connector-curvature="0"
       style="fill:#949c9c;fill-rule:evenodd;stroke:none"
       sodipodi:nodetypes="ccccccsc" />
    <path
       id="path3"
       d="M127.125 189.420 C 127.125 204.343,127.167 210.448,127.218 202.986 C 127.270 195.525,127.270 183.315,127.218 175.853 C 127.167 168.392,127.125 174.497,127.125 189.420 "
       stroke="none"
       fill="#2c789c"
       fill-rule="evenodd" />
    <path
       id="path4"
       d=""
       stroke="none"
       fill="#047c9c"
       fill-rule="evenodd" />
  </g>
</svg>
